<svg width="616" height="616" viewBox="0 0 616 616" fill="none" xmlns="http://www.w3.org/2000/svg">
<rect width="616" height="616" fill="white"/>
<path d="M581 394.5C581 564.604 479.604 593 309.5 593C105.5 478 35 438.104 35 268C35 97.8963 261 111.5 261 22C531 34 437.5 229.5 581 394.5Z" fill="#EAF3FA"/>
<g clip-path="url(#clip0_5:5)">
<path d="M124.753 363.997L152.504 351.056L183.355 417.217L128.071 442.997L101.468 385.947L107.287 372.142L124.753 363.997Z" fill="white" stroke="#4F5ABA" stroke-width="3"/>
<path d="M99.875 386.08L106.524 371.946L110.751 381.009L99.875 386.08Z" fill="#4F5ABA"/>
<rect x="108.21" y="392.124" width="35" height="5" transform="rotate(-25 108.21 392.124)" fill="#EAF3FA"/>
<rect x="111.591" y="399.374" width="46" height="2" transform="rotate(-25 111.591 399.374)" fill="#EAF3FA"/>
<rect x="115.395" y="407.531" width="52" height="1" transform="rotate(-25 115.395 407.531)" fill="#EAF3FA"/>
<rect x="116.24" y="409.344" width="52" height="1" transform="rotate(-25 116.24 409.344)" fill="#EAF3FA"/>
<rect x="117.085" y="411.156" width="46" height="1" transform="rotate(-25 117.085 411.156)" fill="#EAF3FA"/>
<rect x="117.93" y="412.969" width="49" height="1" transform="rotate(-25 117.93 412.969)" fill="#EAF3FA"/>
<rect x="118.776" y="414.781" width="49" height="1" transform="rotate(-25 118.776 414.781)" fill="#EAF3FA"/>
<rect x="119.621" y="416.594" width="49" height="1" transform="rotate(-25 119.621 416.594)" fill="#EAF3FA"/>
<rect x="134.723" y="420.586" width="42" height="1" transform="rotate(-25 134.723 420.586)" fill="#EAF3FA"/>
<rect x="152.304" y="415.697" width="23" height="1" transform="rotate(-25 152.304 415.697)" fill="#EAF3FA"/>
</g>
<g clip-path="url(#clip1_5:5)">
<path d="M97.9277 181.503L128.407 184.437L121.41 257.101L60.6912 251.255L66.7244 188.597L78.7448 179.655L97.9277 181.503Z" fill="white" stroke="#4F5ABA" stroke-width="3"/>
<path d="M65.2843 187.903L78.1875 179.1L77.229 189.053L65.2843 187.903Z" fill="#4F5ABA"/>
<rect x="69.3986" y="197.341" width="35" height="5" transform="rotate(5.5 69.3986 197.341)" fill="#EAF3FA"/>
<rect x="68.6319" y="205.304" width="46" height="2" transform="rotate(5.5 68.6319 205.304)" fill="#EAF3FA"/>
<rect x="67.7693" y="214.263" width="52" height="1" transform="rotate(5.5 67.7693 214.263)" fill="#EAF3FA"/>
<rect x="67.5776" y="216.254" width="52" height="1" transform="rotate(5.5 67.5776 216.254)" fill="#EAF3FA"/>
<rect x="67.3859" y="218.244" width="46" height="1" transform="rotate(5.5 67.3859 218.244)" fill="#EAF3FA"/>
<rect x="67.1942" y="220.235" width="49" height="1" transform="rotate(5.5 67.1942 220.235)" fill="#EAF3FA"/>
<rect x="67.0025" y="222.226" width="49" height="1" transform="rotate(5.5 67.0025 222.226)" fill="#EAF3FA"/>
<rect x="66.8108" y="224.217" width="49" height="1" transform="rotate(5.5 66.8108 224.217)" fill="#EAF3FA"/>
<rect x="77.7971" y="235.321" width="42" height="1" transform="rotate(5.5 77.7971 235.321)" fill="#EAF3FA"/>
<rect x="95.4267" y="240.032" width="23" height="1" transform="rotate(5.5 95.4267 240.032)" fill="#EAF3FA"/>
</g>
<g clip-path="url(#clip2_5:5)">
<path d="M206.355 44.7086L236.462 39.1285L249.766 110.906L189.787 122.022L178.316 60.1291L187.406 48.2206L206.355 44.7086Z" fill="white" stroke="#4F5ABA" stroke-width="3"/>
<path d="M176.74 59.8591L186.717 47.8397L188.539 57.6723L176.74 59.8591Z" fill="#4F5ABA"/>
<rect x="183.297" y="67.7972" width="35" height="5" transform="rotate(-10.5 183.297 67.7972)" fill="#EAF3FA"/>
<rect x="184.754" y="75.6633" width="46" height="2" transform="rotate(-10.5 184.754 75.6633)" fill="#EAF3FA"/>
<rect x="186.395" y="84.5126" width="52" height="1" transform="rotate(-10.5 186.395 84.5126)" fill="#EAF3FA"/>
<rect x="186.759" y="86.4791" width="52" height="1" transform="rotate(-10.5 186.759 86.4791)" fill="#EAF3FA"/>
<rect x="187.123" y="88.4456" width="46" height="1" transform="rotate(-10.5 187.123 88.4456)" fill="#EAF3FA"/>
<rect x="187.488" y="90.4121" width="49" height="1" transform="rotate(-10.5 187.488 90.4121)" fill="#EAF3FA"/>
<rect x="187.852" y="92.3786" width="49" height="1" transform="rotate(-10.5 187.852 92.3786)" fill="#EAF3FA"/>
<rect x="188.217" y="94.3451" width="49" height="1" transform="rotate(-10.5 188.217 94.3451)" fill="#EAF3FA"/>
<rect x="201.838" y="101.991" width="42" height="1" transform="rotate(-10.5 201.838 101.991)" fill="#EAF3FA"/>
<rect x="220.084" y="101.66" width="23" height="1" transform="rotate(-10.5 220.084 101.66)" fill="#EAF3FA"/>
</g>
<g clip-path="url(#clip3_5:5)">
<path d="M536.335 266.193L565.694 257.496L586.427 327.49L527.939 344.815L510.061 284.46L517.857 271.667L536.335 266.193Z" fill="white" stroke="#4F5ABA" stroke-width="3"/>
<path d="M508.466 284.356L517.132 271.36L519.972 280.948L508.466 284.356Z" fill="#4F5ABA"/>
<rect x="515.816" y="291.565" width="35" height="5" transform="rotate(-16.5 515.816 291.565)" fill="#EAF3FA"/>
<rect x="518.088" y="299.236" width="46" height="2" transform="rotate(-16.5 518.088 299.236)" fill="#EAF3FA"/>
<rect x="520.644" y="307.865" width="52" height="1" transform="rotate(-16.5 520.644 307.865)" fill="#EAF3FA"/>
<rect x="521.212" y="309.783" width="52" height="1" transform="rotate(-16.5 521.212 309.783)" fill="#EAF3FA"/>
<rect x="521.78" y="311.701" width="46" height="1" transform="rotate(-16.5 521.78 311.701)" fill="#EAF3FA"/>
<rect x="522.349" y="313.618" width="49" height="1" transform="rotate(-16.5 522.349 313.618)" fill="#EAF3FA"/>
<rect x="522.917" y="315.536" width="49" height="1" transform="rotate(-16.5 522.917 315.536)" fill="#EAF3FA"/>
<rect x="523.485" y="317.454" width="49" height="1" transform="rotate(-16.5 523.485 317.454)" fill="#EAF3FA"/>
<rect x="537.831" y="323.634" width="42" height="1" transform="rotate(-16.5 537.831 323.634)" fill="#EAF3FA"/>
<rect x="555.941" y="321.398" width="23" height="1" transform="rotate(-16.5 555.941 321.398)" fill="#EAF3FA"/>
</g>
<g clip-path="url(#clip4_5:5)">
<path d="M509.305 136.601L539.915 137.402L538.004 210.377L477.025 208.781L478.673 145.855L490.04 136.096L509.305 136.601Z" fill="white" stroke="#4F5ABA" stroke-width="3"/>
<path d="M477.188 145.263L489.445 135.581L489.184 145.577L477.188 145.263Z" fill="#4F5ABA"/>
<rect x="481.95" y="154.391" width="35" height="5" transform="rotate(1.5 481.95 154.391)" fill="#EAF3FA"/>
<rect x="481.741" y="162.388" width="46" height="2" transform="rotate(1.5 481.741 162.388)" fill="#EAF3FA"/>
<rect x="481.505" y="171.385" width="52" height="1" transform="rotate(1.5 481.505 171.385)" fill="#EAF3FA"/>
<rect x="481.453" y="173.384" width="52" height="1" transform="rotate(1.5 481.453 173.384)" fill="#EAF3FA"/>
<rect x="481.401" y="175.384" width="46" height="1" transform="rotate(1.5 481.401 175.384)" fill="#EAF3FA"/>
<rect x="481.348" y="177.383" width="49" height="1" transform="rotate(1.5 481.348 177.383)" fill="#EAF3FA"/>
<rect x="481.296" y="179.382" width="49" height="1" transform="rotate(1.5 481.296 179.382)" fill="#EAF3FA"/>
<rect x="481.244" y="181.382" width="49" height="1" transform="rotate(1.5 481.244 181.382)" fill="#EAF3FA"/>
<rect x="492.978" y="191.692" width="42" height="1" transform="rotate(1.5 492.978 191.692)" fill="#EAF3FA"/>
<rect x="510.893" y="195.162" width="23" height="1" transform="rotate(1.5 510.893 195.162)" fill="#EAF3FA"/>
</g>
<g clip-path="url(#clip5_5:5)">
<path d="M421.804 75.9362L450.485 86.6597L424.92 155.037L367.783 133.674L389.827 74.7131L403.752 69.1872L421.804 75.9362Z" fill="white" stroke="#4F5ABA" stroke-width="3"/>
<path d="M388.616 73.6701L403.358 68.5059L399.856 77.8726L388.616 73.6701Z" fill="#4F5ABA"/>
<rect x="390.147" y="83.8512" width="35" height="5" transform="rotate(20.5 390.147 83.8512)" fill="#EAF3FA"/>
<rect x="387.346" y="91.3446" width="46" height="2" transform="rotate(20.5 387.346 91.3446)" fill="#EAF3FA"/>
<rect x="384.194" y="99.7746" width="52" height="1" transform="rotate(20.5 384.194 99.7746)" fill="#EAF3FA"/>
<rect x="383.493" y="101.648" width="52" height="1" transform="rotate(20.5 383.493 101.648)" fill="#EAF3FA"/>
<rect x="382.793" y="103.521" width="46" height="1" transform="rotate(20.5 382.793 103.521)" fill="#EAF3FA"/>
<rect x="382.092" y="105.395" width="49" height="1" transform="rotate(20.5 382.092 105.395)" fill="#EAF3FA"/>
<rect x="381.392" y="107.268" width="49" height="1" transform="rotate(20.5 381.392 107.268)" fill="#EAF3FA"/>
<rect x="380.692" y="109.141" width="49" height="1" transform="rotate(20.5 380.692 109.141)" fill="#EAF3FA"/>
<rect x="388.43" y="122.711" width="42" height="1" transform="rotate(20.5 388.43 122.711)" fill="#EAF3FA"/>
<rect x="404.239" y="131.824" width="23" height="1" transform="rotate(20.5 404.239 131.824)" fill="#EAF3FA"/>
</g>
<g clip-path="url(#clip6_5:5)">
<path d="M516.44 419.754L531.75 446.272L468.53 482.772L438.03 429.945L492.545 398.471L506.804 403.065L516.44 419.754Z" fill="white" stroke="#4F5ABA" stroke-width="3"/>
<path d="M492.273 396.896L506.933 402.288L498.273 407.288L492.273 396.896Z" fill="#4F5ABA"/>
<rect x="486.979" y="405.726" width="35" height="5" transform="rotate(60 486.979 405.726)" fill="#EAF3FA"/>
<rect x="480.051" y="409.726" width="46" height="2" transform="rotate(60 480.051 409.726)" fill="#EAF3FA"/>
<rect x="472.256" y="414.226" width="52" height="1" transform="rotate(60 472.256 414.226)" fill="#EAF3FA"/>
<rect x="470.524" y="415.226" width="52" height="1" transform="rotate(60 470.524 415.226)" fill="#EAF3FA"/>
<rect x="468.792" y="416.226" width="46" height="1" transform="rotate(60 468.792 416.226)" fill="#EAF3FA"/>
<rect x="467.06" y="417.226" width="49" height="1" transform="rotate(60 467.06 417.226)" fill="#EAF3FA"/>
<rect x="465.328" y="418.226" width="49" height="1" transform="rotate(60 465.328 418.226)" fill="#EAF3FA"/>
<rect x="463.596" y="419.226" width="49" height="1" transform="rotate(60 463.596 419.226)" fill="#EAF3FA"/>
<rect x="460.936" y="434.618" width="42" height="1" transform="rotate(60 460.936 434.618)" fill="#EAF3FA"/>
<rect x="467.338" y="451.707" width="23" height="1" transform="rotate(60 467.338 451.707)" fill="#EAF3FA"/>
</g>
<g clip-path="url(#clip7_5:5)">
<path d="M459.626 514.152L482.02 535.035L432.235 588.424L387.622 546.822L430.552 500.786L445.532 501.009L459.626 514.152Z" fill="white" stroke="#4F5ABA" stroke-width="3"/>
<path d="M429.832 499.358L445.428 500.229L438.608 507.542L429.832 499.358Z" fill="#4F5ABA"/>
<rect x="427.351" y="509.351" width="35" height="5" transform="rotate(43 427.351 509.351)" fill="#EAF3FA"/>
<rect x="421.895" y="515.201" width="46" height="2" transform="rotate(43 421.895 515.201)" fill="#EAF3FA"/>
<rect x="415.757" y="521.784" width="52" height="1" transform="rotate(43 415.757 521.784)" fill="#EAF3FA"/>
<rect x="414.393" y="523.246" width="52" height="1" transform="rotate(43 414.393 523.246)" fill="#EAF3FA"/>
<rect x="413.029" y="524.709" width="46" height="1" transform="rotate(43 413.029 524.709)" fill="#EAF3FA"/>
<rect x="411.665" y="526.172" width="49" height="1" transform="rotate(43 411.665 526.172)" fill="#EAF3FA"/>
<rect x="410.301" y="527.634" width="49" height="1" transform="rotate(43 410.301 527.634)" fill="#EAF3FA"/>
<rect x="408.937" y="529.097" width="49" height="1" transform="rotate(43 408.937 529.097)" fill="#EAF3FA"/>
<rect x="410.893" y="544.595" width="42" height="1" transform="rotate(43 410.893 544.595)" fill="#EAF3FA"/>
<rect x="422.011" y="559.065" width="23" height="1" transform="rotate(43 422.011 559.065)" fill="#EAF3FA"/>
</g>
<g clip-path="url(#clip8_5:5)">
<path d="M186.997 517.384L215.487 528.606L188.732 596.527L131.977 574.17L155.047 515.603L169.067 510.321L186.997 517.384Z" fill="white" stroke="#4F5ABA" stroke-width="3"/>
<path d="M153.854 514.539L168.684 509.633L165.019 518.937L153.854 514.539Z" fill="#4F5ABA"/>
<rect x="155.208" y="524.745" width="35" height="5" transform="rotate(21.5 155.208 524.745)" fill="#EAF3FA"/>
<rect x="152.276" y="532.188" width="46" height="2" transform="rotate(21.5 152.276 532.188)" fill="#EAF3FA"/>
<rect x="148.977" y="540.562" width="52" height="1" transform="rotate(21.5 148.977 540.562)" fill="#EAF3FA"/>
<rect x="148.244" y="542.423" width="52" height="1" transform="rotate(21.5 148.244 542.423)" fill="#EAF3FA"/>
<rect x="147.511" y="544.284" width="46" height="1" transform="rotate(21.5 147.511 544.284)" fill="#EAF3FA"/>
<rect x="146.778" y="546.145" width="49" height="1" transform="rotate(21.5 146.778 546.145)" fill="#EAF3FA"/>
<rect x="146.045" y="548.005" width="49" height="1" transform="rotate(21.5 146.045 548.005)" fill="#EAF3FA"/>
<rect x="145.312" y="549.866" width="49" height="1" transform="rotate(21.5 145.312 549.866)" fill="#EAF3FA"/>
<rect x="152.812" y="563.569" width="42" height="1" transform="rotate(21.5 152.812 563.569)" fill="#EAF3FA"/>
<rect x="168.46" y="572.957" width="23" height="1" transform="rotate(21.5 168.46 572.957)" fill="#EAF3FA"/>
</g>
<path d="M305.999 140.223H437.999V500.223H174.999V191.327L224.137 140.223H305.999Z" fill="white" stroke="#4F5ABA" stroke-width="3"/>
<path d="M174.499 192.223L225.499 138.723V192.223H174.499Z" fill="#4F5ABA"/>
<rect x="193.499" y="295.723" width="150" height="25" fill="#EAF3FA"/>
<rect x="193.499" y="332.723" width="200" height="10" fill="#EAF3FA"/>
<rect x="193.499" y="369.723" width="225" height="5" fill="#EAF3FA"/>
<rect x="193.499" y="378.723" width="225" height="5" fill="#EAF3FA"/>
<rect x="193.499" y="387.723" width="200" height="5" fill="#EAF3FA"/>
<rect x="193.499" y="396.723" width="211" height="5" fill="#EAF3FA"/>
<rect x="193.499" y="405.723" width="211" height="5" fill="#EAF3FA"/>
<rect x="193.499" y="414.723" width="211" height="5" fill="#EAF3FA"/>
<rect x="246.499" y="457.723" width="179" height="5" fill="#EAF3FA"/>
<rect x="323.499" y="468.723" width="100" height="8" fill="#EAF3FA"/>
<path d="M208.074 231.95V244.035C208.066 245.711 207.537 247.082 206.487 248.149C205.445 249.215 204.029 249.813 202.239 249.943L201.617 249.967C199.672 249.967 198.121 249.443 196.966 248.393C195.81 247.343 195.224 245.898 195.208 244.059V231.95H197.527V243.986C197.527 245.272 197.881 246.273 198.589 246.989C199.297 247.697 200.306 248.051 201.617 248.051C202.943 248.051 203.956 247.697 204.656 246.989C205.364 246.281 205.718 245.284 205.718 243.998V231.95H208.074ZM213.555 236.515L213.628 238.175C214.637 236.906 215.956 236.271 217.583 236.271C220.375 236.271 221.783 237.846 221.807 240.995V249.723H219.549V240.983C219.541 240.031 219.321 239.327 218.889 238.871C218.466 238.415 217.803 238.188 216.9 238.188C216.167 238.188 215.524 238.383 214.971 238.774C214.418 239.164 213.986 239.677 213.677 240.312V249.723H211.419V236.515H213.555ZM227.666 249.723H225.408V236.515H227.666V249.723ZM225.225 233.012C225.225 232.646 225.335 232.336 225.555 232.084C225.782 231.832 226.116 231.706 226.555 231.706C226.995 231.706 227.329 231.832 227.556 232.084C227.784 232.336 227.898 232.646 227.898 233.012C227.898 233.378 227.784 233.683 227.556 233.927C227.329 234.172 226.995 234.294 226.555 234.294C226.116 234.294 225.782 234.172 225.555 233.927C225.335 233.683 225.225 233.378 225.225 233.012ZM234.356 233.317V236.515H236.822V238.261H234.356V246.452C234.356 246.981 234.466 247.38 234.685 247.648C234.905 247.908 235.279 248.039 235.808 248.039C236.069 248.039 236.427 247.99 236.883 247.892V249.723C236.289 249.886 235.711 249.967 235.149 249.967C234.14 249.967 233.379 249.662 232.867 249.052C232.354 248.442 232.097 247.575 232.097 246.452V238.261H229.693V236.515H232.097V233.317H234.356ZM243.792 246.415L246.868 236.515H249.285L243.975 251.762C243.153 253.959 241.847 255.058 240.056 255.058L239.629 255.021L238.787 254.862V253.031L239.397 253.08C240.162 253.08 240.756 252.926 241.18 252.616C241.611 252.307 241.965 251.741 242.242 250.92L242.742 249.577L238.03 236.515H240.496L243.792 246.415Z" fill="#000B1F"/>
<path d="M413.786 168.837V174.879C413.782 175.717 413.518 176.403 412.993 176.936C412.472 177.469 411.764 177.768 410.869 177.833L410.558 177.845C409.585 177.845 408.81 177.583 408.232 177.058C407.654 176.533 407.361 175.811 407.353 174.891V168.837H408.513V174.855C408.513 175.498 408.69 175.998 409.044 176.356C409.398 176.71 409.903 176.887 410.558 176.887C411.221 176.887 411.728 176.71 412.077 176.356C412.431 176.002 412.608 175.504 412.608 174.861V168.837H413.786Z" fill="#000B1F"/>
<path d="M268.842 233.879H263.129V249.723H260.798V233.879H255.097V231.95H268.842V233.879ZM276.581 238.542C276.24 238.485 275.869 238.456 275.471 238.456C273.989 238.456 272.984 239.087 272.455 240.348V249.723H270.197V236.515H272.394L272.431 238.041C273.172 236.861 274.221 236.271 275.58 236.271C276.02 236.271 276.353 236.328 276.581 236.442V238.542ZM286.823 248.417C285.944 249.451 284.654 249.967 282.953 249.967C281.546 249.967 280.471 249.561 279.731 248.747C278.998 247.925 278.628 246.712 278.62 245.109V236.515H280.878V245.048C280.878 247.05 281.692 248.051 283.32 248.051C285.045 248.051 286.192 247.408 286.762 246.122V236.515H289.02V249.723H286.872L286.823 248.417ZM300.153 246.22C300.153 245.609 299.921 245.137 299.457 244.804C299.002 244.462 298.2 244.169 297.053 243.925C295.913 243.681 295.006 243.388 294.33 243.046C293.663 242.704 293.167 242.297 292.841 241.825C292.524 241.353 292.365 240.792 292.365 240.141C292.365 239.058 292.821 238.143 293.732 237.394C294.652 236.645 295.824 236.271 297.248 236.271C298.745 236.271 299.958 236.658 300.886 237.431C301.821 238.204 302.289 239.193 302.289 240.397H300.019C300.019 239.779 299.754 239.246 299.225 238.798C298.705 238.35 298.045 238.127 297.248 238.127C296.426 238.127 295.783 238.306 295.319 238.664C294.855 239.022 294.623 239.49 294.623 240.068C294.623 240.613 294.839 241.024 295.27 241.3C295.702 241.577 296.479 241.842 297.602 242.094C298.733 242.346 299.649 242.647 300.348 242.997C301.048 243.347 301.565 243.77 301.899 244.267C302.241 244.755 302.411 245.353 302.411 246.061C302.411 247.241 301.939 248.189 300.995 248.905C300.051 249.613 298.827 249.967 297.321 249.967C296.263 249.967 295.327 249.78 294.513 249.406C293.7 249.032 293.061 248.511 292.597 247.843C292.141 247.168 291.913 246.44 291.913 245.658H294.172C294.212 246.415 294.513 247.017 295.075 247.465C295.645 247.904 296.393 248.124 297.321 248.124C298.176 248.124 298.859 247.953 299.372 247.611C299.893 247.262 300.153 246.798 300.153 246.22ZM308.417 233.317V236.515H310.883V238.261H308.417V246.452C308.417 246.981 308.527 247.38 308.747 247.648C308.967 247.908 309.341 248.039 309.87 248.039C310.13 248.039 310.488 247.99 310.944 247.892V249.723C310.35 249.886 309.772 249.967 309.211 249.967C308.202 249.967 307.441 249.662 306.928 249.052C306.415 248.442 306.159 247.575 306.159 246.452V238.261H303.754V236.515H306.159V233.317H308.417Z" fill="#4F5ABA"/>
<path d="M422.67 169.801H419.814V177.723H418.648V169.801H415.798V168.837H422.67V169.801Z" fill="#4F5ABA"/>
<path d="M203.001 272.012H197.044L195.706 275.723H193.772L199.202 261.505H200.843L206.282 275.723H204.358L203.001 272.012ZM197.61 270.469H202.444L200.022 263.819L197.61 270.469ZM216.858 270.557C216.858 272.172 216.487 273.471 215.745 274.454C215.003 275.43 214.007 275.919 212.757 275.919C211.422 275.919 210.39 275.447 209.661 274.503L209.573 275.723H207.913V260.723H209.72V266.319C210.449 265.414 211.455 264.962 212.737 264.962C214.02 264.962 215.026 265.447 215.755 266.417C216.49 267.387 216.858 268.715 216.858 270.401V270.557ZM215.052 270.352C215.052 269.122 214.814 268.171 214.339 267.501C213.863 266.83 213.18 266.495 212.288 266.495C211.096 266.495 210.24 267.048 209.72 268.155V272.725C210.273 273.832 211.136 274.385 212.307 274.385C213.173 274.385 213.847 274.05 214.329 273.38C214.811 272.709 215.052 271.7 215.052 270.352ZM218.665 270.342C218.665 269.307 218.867 268.376 219.27 267.549C219.68 266.723 220.247 266.085 220.97 265.635C221.699 265.186 222.529 264.962 223.46 264.962C224.899 264.962 226.061 265.46 226.946 266.456C227.838 267.452 228.284 268.777 228.284 270.43V270.557C228.284 271.586 228.085 272.51 227.688 273.331C227.298 274.144 226.735 274.779 225.999 275.235C225.27 275.691 224.43 275.919 223.479 275.919C222.047 275.919 220.885 275.421 219.993 274.424C219.108 273.428 218.665 272.11 218.665 270.469V270.342ZM220.481 270.557C220.481 271.729 220.751 272.67 221.292 273.38C221.839 274.089 222.568 274.444 223.479 274.444C224.397 274.444 225.126 274.086 225.667 273.37C226.207 272.647 226.477 271.638 226.477 270.342C226.477 269.184 226.201 268.246 225.647 267.53C225.1 266.807 224.371 266.446 223.46 266.446C222.568 266.446 221.848 266.801 221.302 267.51C220.755 268.22 220.481 269.236 220.481 270.557ZM237.073 274.678C236.37 275.505 235.338 275.919 233.977 275.919C232.851 275.919 231.992 275.593 231.399 274.942C230.813 274.284 230.517 273.314 230.511 272.032V265.157H232.317V271.983C232.317 273.585 232.968 274.385 234.27 274.385C235.651 274.385 236.569 273.871 237.024 272.842V265.157H238.831V275.723H237.112L237.073 274.678ZM244.036 262.598V265.157H246.009V266.553H244.036V273.106C244.036 273.529 244.124 273.848 244.3 274.063C244.475 274.271 244.775 274.376 245.198 274.376C245.406 274.376 245.693 274.337 246.057 274.258V275.723C245.582 275.853 245.12 275.919 244.671 275.919C243.863 275.919 243.255 275.674 242.845 275.186C242.434 274.698 242.229 274.005 242.229 273.106V266.553H240.305V265.157H242.229V262.598H244.036ZM263.382 261.505V271.172C263.375 272.514 262.952 273.611 262.112 274.464C261.279 275.316 260.146 275.795 258.714 275.899L258.216 275.919C256.66 275.919 255.419 275.499 254.495 274.659C253.57 273.819 253.102 272.663 253.089 271.192V261.505H254.944V271.133C254.944 272.162 255.227 272.963 255.794 273.536C256.36 274.102 257.167 274.385 258.216 274.385C259.277 274.385 260.087 274.102 260.647 273.536C261.214 272.969 261.497 272.172 261.497 271.143V261.505H263.382ZM272.21 272.921C272.21 272.432 272.024 272.055 271.653 271.788C271.289 271.514 270.647 271.28 269.729 271.085C268.818 270.889 268.092 270.655 267.552 270.381C267.018 270.108 266.621 269.783 266.36 269.405C266.106 269.027 265.979 268.578 265.979 268.057C265.979 267.191 266.344 266.459 267.073 265.86C267.809 265.261 268.746 264.962 269.886 264.962C271.083 264.962 272.054 265.271 272.796 265.889C273.544 266.508 273.919 267.299 273.919 268.262H272.102C272.102 267.768 271.891 267.341 271.468 266.983C271.051 266.625 270.524 266.446 269.886 266.446C269.228 266.446 268.714 266.589 268.343 266.876C267.971 267.162 267.786 267.536 267.786 267.999C267.786 268.435 267.958 268.764 268.304 268.985C268.649 269.206 269.27 269.418 270.169 269.62C271.074 269.822 271.806 270.062 272.366 270.342C272.926 270.622 273.339 270.961 273.606 271.358C273.88 271.749 274.016 272.227 274.016 272.794C274.016 273.738 273.639 274.496 272.884 275.069C272.128 275.635 271.149 275.919 269.944 275.919C269.098 275.919 268.349 275.769 267.698 275.469C267.047 275.17 266.536 274.753 266.165 274.219C265.8 273.679 265.618 273.096 265.618 272.471H267.425C267.457 273.077 267.698 273.559 268.147 273.917C268.603 274.268 269.202 274.444 269.944 274.444C270.628 274.444 271.175 274.307 271.585 274.034C272.001 273.754 272.21 273.383 272.21 272.921Z" fill="black"/>
<defs>
<clipPath id="clip0_5:5">
<rect width="64" height="97" fill="white" transform="translate(91 367.048) rotate(-25)"/>
</clipPath>
<clipPath id="clip1_5:5">
<rect width="64" height="97" fill="white" transform="translate(67.297 167) rotate(5.5)"/>
</clipPath>
<clipPath id="clip2_5:5">
<rect width="64" height="97" fill="white" transform="translate(172.913 39.2108) rotate(-10.5)"/>
</clipPath>
<clipPath id="clip3_5:5">
<rect width="64" height="97" fill="white" transform="translate(502.502 264.221) rotate(-16.5)"/>
</clipPath>
<clipPath id="clip4_5:5">
<rect width="64" height="97" fill="white" transform="translate(477.737 124.27) rotate(1.5)"/>
</clipPath>
<clipPath id="clip5_5:5">
<rect width="64" height="97" fill="white" transform="translate(395.97 54) rotate(20.5)"/>
</clipPath>
<clipPath id="clip6_5:5">
<rect width="64" height="97" fill="white" transform="translate(510.46 386.396) rotate(60)"/>
</clipPath>
<clipPath id="clip7_5:5">
<rect width="64" height="97" fill="white" transform="translate(444.154 484) rotate(43)"/>
</clipPath>
<clipPath id="clip8_5:5">
<rect width="64" height="97" fill="white" transform="translate(161.551 495) rotate(21.5)"/>
</clipPath>
</defs>
</svg>
